<svg width="301" height="335" viewBox="0 0 301 335" fill="none" xmlns="http://www.w3.org/2000/svg">
<path d="M65.7077 116.278L6.5366 133.271L27.1912 142.054L3.96094 162.521L8.00699 167.12L12.0629 171.718L35.2932 151.241L41.4017 172.843L65.7077 116.278Z" fill="#75BBE5" stroke="black" stroke-width="5.92105" stroke-miterlimit="10" stroke-linecap="round" stroke-linejoin="round"/>
<path d="M221.066 73.9312C221.066 37.6396 191.644 8.21753 155.352 8.21753C119.061 8.21753 89.6387 37.6396 89.6387 73.9312C89.6387 102.741 108.184 127.199 133.974 136.072V160.431H176.74V136.072C202.52 127.199 221.066 102.741 221.066 73.9312Z" fill="#F9C449" stroke="black" stroke-width="5.92105" stroke-miterlimit="10" stroke-linecap="round" stroke-linejoin="round"/>
<path d="M176.731 160.441H133.965V181.197H176.731V160.441Z" stroke="black" stroke-width="5.92105" stroke-miterlimit="10" stroke-linecap="round" stroke-linejoin="round"/>
<path d="M133.965 193.229H176.731" stroke="black" stroke-width="5.92105" stroke-miterlimit="10" stroke-linecap="round" stroke-linejoin="round"/>
<path d="M142.097 204.44H168.587" stroke="black" stroke-width="5.92105" stroke-miterlimit="10" stroke-linecap="round" stroke-linejoin="round"/>
<path d="M155.343 158.694V90.9463" stroke="black" stroke-width="5.92105" stroke-miterlimit="10" stroke-linecap="round" stroke-linejoin="round"/>
<path d="M127.954 90.9463H182.732" stroke="black" stroke-width="5.92105" stroke-miterlimit="10" stroke-linecap="round" stroke-linejoin="round"/>
<path d="M125.767 288.472H194.609C201.28 288.472 206.678 282.965 206.678 276.166C206.678 269.366 199.306 264.827 194.609 263.86L70.168 238.014V300.827C70.168 300.827 144.102 331.014 169.247 331.014C191.076 331.014 273.447 284.84 294.753 272.692C297.526 271.113 297.783 267.195 295.227 265.291C286.04 258.442 261.378 248.593 206.678 272.81" fill="#E094BB"/>
<path d="M70.1673 220.518H16.7891V320.455H70.1673V220.518Z" fill="#EB8A55" stroke="black" stroke-width="5.92105" stroke-miterlimit="10" stroke-linecap="round" stroke-linejoin="round"/>
<path d="M125.767 288.472H194.609C201.28 288.472 206.678 282.965 206.678 276.166C206.678 269.366 199.306 264.827 194.609 263.86L70.168 238.014V300.827C70.168 300.827 144.102 331.014 169.247 331.014C191.076 331.014 273.447 284.84 294.753 272.692C297.526 271.113 297.783 267.195 295.227 265.291C286.04 258.442 261.378 248.593 206.678 272.81" stroke="black" stroke-width="5.92105" stroke-miterlimit="10" stroke-linecap="round" stroke-linejoin="round"/>
</svg>
