<svg width="301" height="335" viewBox="0 0 301 335" fill="none" xmlns="http://www.w3.org/2000/svg">
<g clip-path="url(#clip0_6657_10308)">
<path d="M235.609 147.175L260.115 151.481L267.695 130.915L245.432 118.062L243.105 117.205C244.366 108.375 243.955 99.5555 242.068 91.1224L245.105 89.7218L265.476 75.4384L256.28 55.5425L231.453 62.1929L229.2 63.2323C224.012 56.3144 217.568 50.2778 210.035 45.4969L211.18 42.3913L215.486 17.8864L194.919 10.3058L182.066 32.5677L181.22 34.8649C172.38 33.5999 163.55 34.0075 155.113 35.9032L154.086 33.6771L139.504 12.5018L119.601 21.6837L125.83 45.7715L127.213 48.7671C120.294 53.9551 114.244 60.4039 109.466 67.9597L107.188 67.1203L81.9092 62.4503L74.3291 83.0163L95.7683 95.6439L98.8543 96.7814C97.5898 105.621 98.0074 114.454 99.9003 122.9L97.6738 123.927L76.4918 138.494L85.675 158.396L109.763 152.169L112.772 150.781C117.961 157.699 124.414 163.739 131.96 168.514L131.113 170.811L126.444 196.088L147.012 203.669L159.638 182.232L160.787 179.116C169.621 180.367 178.45 179.96 186.877 178.06L188.278 181.096L202.563 201.467L222.465 192.285L215.804 167.456L214.758 165.189C221.662 160.007 227.703 153.555 232.474 146.019L235.609 147.175ZM156.485 146.365C134.744 138.352 123.613 114.227 131.625 92.4876C139.638 70.7487 163.764 59.6184 185.504 67.6313C207.245 75.6445 218.377 99.7699 210.364 121.509C202.352 143.248 178.235 154.382 156.485 146.365Z" fill="#FD624D" stroke="black" stroke-width="6.06061" stroke-miterlimit="10" stroke-linecap="round" stroke-linejoin="round"/>
<path d="M65.7323 103.362L5.16664 120.756L26.3081 129.745L2.53027 150.695L6.67169 155.402L10.8232 160.109L34.601 139.149L40.8535 161.261L65.7323 103.362Z" fill="#75BBE5" stroke="black" stroke-width="5.05051" stroke-miterlimit="10" stroke-linecap="round" stroke-linejoin="round"/>
<path d="M63.2272 220.52H8.59082V322.813H63.2272V220.52Z" fill="#EB8A55" stroke="black" stroke-width="6.06061" stroke-miterlimit="10" stroke-linecap="round" stroke-linejoin="round"/>
<path d="M120.137 290.075H190.601C197.429 290.075 202.955 284.439 202.955 277.479C202.955 270.52 195.409 265.873 190.601 264.884L63.2275 238.429V302.722C63.2275 302.722 138.904 333.621 164.642 333.621C186.985 333.621 271.298 286.358 293.106 273.924C295.945 272.308 296.207 268.298 293.591 266.348C284.187 259.338 258.945 249.257 202.955 274.045" fill="#E094BB"/>
<path d="M120.137 290.075H190.601C197.429 290.075 202.955 284.439 202.955 277.479C202.955 270.52 195.409 265.873 190.601 264.884L63.2275 238.429V302.722C63.2275 302.722 138.904 333.621 164.642 333.621C186.985 333.621 271.298 286.358 293.106 273.924C295.945 272.308 296.207 268.298 293.591 266.348C284.187 259.338 258.945 249.257 202.955 274.045" stroke="black" stroke-width="6.06061" stroke-miterlimit="10" stroke-linecap="round" stroke-linejoin="round"/>
</g>
<defs>
<clipPath id="clip0_6657_10308">
<rect width="300" height="335" fill="white" transform="translate(0.5)"/>
</clipPath>
</defs>
</svg>
