<svg width="364" height="364" viewBox="0 0 364 364" fill="none" xmlns="http://www.w3.org/2000/svg">
<rect x="1" y="25" width="338" height="338" rx="19" stroke="black" stroke-width="2"/>
<rect x="27.5" y="3.5" width="333" height="333" rx="16.5" fill="#D8BBE6" stroke="black" stroke-width="7"/>
<rect x="3.5" y="27.5" width="333" height="333" rx="16.5" fill="#D8BBE6" stroke="black" stroke-width="7"/>
<path d="M78.32 130L56.32 76.24H67.44L83.28 117.12L99.04 76.24H110.16L88.16 130H78.32Z" fill="black"/>
<path d="M62.72 214V160.24H72.96V185.76L96.72 160.24H108.96L85.28 185.36L110.08 214H97.6L78.16 191.6L72.96 197.04V214H62.72Z" fill="black"/>
<path d="M62.72 298V244.24H99.44V252.24H73.36V266.56H96.88V274.4H73.36V290H100.72V298H62.72Z" fill="black"/>
<circle cx="182" cy="288" r="13.5" stroke="black" stroke-width="7"/>
<rect x="213.5" y="279.5" width="74" height="17" rx="7.5" stroke="black" stroke-width="7"/>
<path d="M264.786 235C264.786 241.075 263.861 246 257.786 246H242.786C236.711 246 235.786 241.075 235.786 235V213.25H264.786V235ZM242.786 235C242.786 237.209 244.577 239 246.786 239H253.786L253.992 238.995C256.037 238.891 257.677 237.251 257.781 235.206L257.786 235V213.25H242.786V235ZM246.822 165C248.362 162.333 252.21 162.333 253.75 165L281.03 207.25C282.521 209.833 280.762 213.042 277.851 213.24L277.566 213.25H264.786H257.786V206.25H242.786V213.25H235.786H223.006C219.927 213.25 218.002 209.916 219.542 207.25L246.822 165ZM228.202 206.25H273.37L250.286 172.999L228.202 206.25Z" fill="black"/>
</svg>
