<svg width="58" height="56" viewBox="0 0 58 56" fill="none" xmlns="http://www.w3.org/2000/svg">
<g clip-path="url(#clip0_6652_10240)">
<path d="M9.58733 48.1894C9.01783 47.79 8.55993 47.3037 8.10223 46.8292C7.32793 46.0266 6.59413 45.1819 5.92423 44.2858C3.39803 40.9069 1.68363 37.1518 0.862726 32.9941C0.616126 31.7449 0.494526 30.4775 0.405326 29.2035C0.286126 27.5022 0.413226 25.8226 0.621326 24.1394C0.809126 22.6203 1.12903 21.1299 1.59333 19.6775C2.26773 17.5677 3.15273 15.551 4.31353 13.6595C5.60503 11.5552 7.12433 9.6411 8.90853 7.94774C10.6289 6.31509 12.5101 4.90016 14.5838 3.74869C16.2791 2.80732 18.0336 2.01238 19.8821 1.43294C21.5402 0.913171 23.2222 0.511621 24.95 0.300631C26.358 0.128701 27.768 -0.0115687 29.1848 0.0333813C30.881 0.0872013 32.567 0.248011 34.2417 0.564191C36.2116 0.936071 38.1154 1.51824 39.9653 2.27457C41.4131 2.86652 42.799 3.60037 44.124 4.43857C45.7897 5.49232 47.3318 6.7062 48.76 8.0776C50.738 9.977 52.3913 12.1222 53.7419 14.5132C55.2984 17.2684 56.3306 20.2153 56.8616 23.3369C57.0208 24.2731 57.1127 25.2222 57.1822 26.1743C57.2496 27.0963 57.2585 28.0171 57.2217 28.9339C57.1672 30.2888 57.0099 31.6373 56.7487 32.9718C56.471 34.3906 56.0974 35.7807 55.6027 37.1375C54.7889 39.3689 53.6882 41.4437 52.3493 43.401C51.4377 44.7337 50.3662 45.9213 49.291 47.1106C49.2274 47.1809 49.1522 47.2404 49.0606 47.3179C49.0107 47.345 48.9813 47.355 48.9314 47.3749C48.9124 47.3888 48.9165 47.3896 48.9162 47.3875C48.6063 47.5868 48.241 47.5993 47.8983 47.6773C45.6894 48.1797 43.4537 48.5348 41.2104 48.8283C40.4998 48.9213 39.7702 48.9057 39.0491 48.9319C38.4935 48.952 37.9351 48.9774 37.3826 48.9772C35.6329 48.9765 33.8757 48.9946 32.236 48.1859C30.8496 47.5021 29.6909 46.5432 28.6546 45.4026C28.0862 44.777 27.6995 44.037 27.2494 43.3356C27.1797 43.227 27.1176 43.1112 27.0005 42.9922C26.9181 43.1938 26.8792 43.3773 26.8361 43.5596C26.442 45.2242 25.7185 46.6978 24.4899 47.9128C23.6593 48.7342 22.6557 49.1712 21.5602 49.4373C19.9821 49.8205 18.3895 49.737 16.7945 49.5517C14.627 49.2998 12.4819 48.9194 10.3541 48.4352C10.101 48.3776 9.83873 48.3492 9.58733 48.1894Z" fill="white"/>
<path d="M9.57324 48.1964C10.4079 48.3457 11.2529 48.5151 12.0958 48.6946C13.5762 49.0098 15.0697 49.2347 16.5726 49.4082C17.7023 49.5386 18.8277 49.6451 19.9693 49.5681C23.3848 49.3376 25.3716 47.7377 26.5129 44.3304C26.6882 43.8068 26.797 43.2604 26.9549 42.6545C27.362 43.3227 27.6897 43.9752 28.121 44.5479C29.722 46.6739 31.6914 48.2842 34.3807 48.7328C35.4631 48.9134 36.5708 48.9149 37.6724 48.852C38.4763 48.806 39.2828 48.7967 40.0868 48.7811C41.5856 48.7519 43.0425 48.4408 44.5133 48.2212C45.9731 48.0032 47.4125 47.6741 48.8863 47.3785C48.5338 47.9236 48.0131 48.3211 47.5202 48.738C44.4968 51.2947 41.1036 53.1683 37.3247 54.3206C35.4542 54.891 33.5467 55.2546 31.6026 55.45C30.3039 55.5805 29.0028 55.6298 27.7035 55.5694C23.9374 55.3944 20.3163 54.5735 16.8671 53.008C14.2456 51.8181 11.8644 50.2559 9.69434 48.3581C9.65064 48.3199 9.61954 48.267 9.57324 48.1964Z" fill="#838383"/>
<path d="M48.9308 47.3885C48.9192 47.3362 48.9578 47.3315 49.0187 47.3306C49.0088 47.3503 48.9791 47.3697 48.9308 47.3885Z" fill="#838383"/>
<path d="M19.9732 14.327C19.4503 12.7212 19.2858 11.1094 19.5402 9.4635C20.0456 6.19326 21.8408 3.86319 24.7217 2.38799C26.1415 1.66097 27.6899 1.47514 29.2784 1.59712C31.2033 1.74493 32.8855 2.444 34.2643 3.81728C35.42 4.96841 36.0086 6.41525 36.241 8.0134C36.5618 10.2204 35.9136 12.1404 34.4853 13.8114C32.339 16.3225 27.9682 15.9678 26.3296 13.1511C25.4382 11.619 25.808 9.5233 27.1949 8.432C27.8053 7.95171 28.4907 7.66734 29.2674 8.0651C29.8979 8.3879 30.0935 8.9477 29.7967 9.5902C29.6271 9.9575 29.4192 10.3066 29.2453 10.6721C28.9795 11.2308 29.1127 11.6314 29.648 11.9382C30.5354 12.4467 31.4948 12.2741 32.1242 11.4639C33.1471 10.1471 33.2848 8.6813 32.6584 7.17639C32.0338 5.67552 30.791 5.04303 29.2323 4.90523C27.9737 4.79396 26.7771 4.95155 25.6629 5.56881C23.3667 6.84084 22.1924 9.4831 22.7005 12.0856C23.2458 14.8784 25.0286 16.5523 27.5171 17.5612C29.6837 18.4396 31.9393 18.5989 34.2454 18.2389C35.7166 18.0093 37.1928 17.7543 38.6912 17.8525C42.1693 18.0804 45.0001 19.4713 46.7659 22.6309C47.6434 24.201 47.9592 25.9314 47.9358 27.7355C47.9143 29.3961 47.471 30.9248 46.5794 32.3037C45.2028 34.4327 43.2359 35.737 40.7573 36.0726C38.3257 36.4017 36.0615 35.8369 34.3155 33.9846C32.8449 32.4245 32.0783 30.5404 32.3467 28.3304C32.8034 24.57 36.7092 23.3187 38.9656 24.1083C40.6648 24.7029 41.7224 26.5087 41.3701 28.2503C41.2528 28.83 40.9722 29.3281 40.4598 29.6507C39.7099 30.1228 38.8386 29.778 38.6102 28.922C38.5057 28.5308 38.4391 28.1287 38.3237 27.7411C38.1602 27.192 37.8629 27.0363 37.3068 27.1073C36.1611 27.2536 35.4891 28.2049 35.6664 29.452C36.071 32.2969 39.3311 34.0787 42.1755 32.1575C43.3341 31.3749 44.1613 30.2956 44.5086 28.9214C45.3805 25.4709 43.6255 21.9387 39.7162 21.2366C36.879 20.727 34.3199 21.4545 32.0049 23.1086C30.9031 23.8959 30.2409 25.059 29.6667 26.2667C29.5032 26.6105 29.3743 26.972 29.1996 27.3094C28.818 28.0461 28.8211 28.8784 28.6032 29.6556C27.5568 33.3865 25.1157 35.6751 21.4548 36.6507C19.3116 37.2218 17.1747 37.0682 15.1294 36.1981C12.4581 35.0616 10.788 33.0666 10.2164 30.1557C9.76462 27.855 10.1189 25.7404 11.5074 23.8327C13.4913 21.1071 17.3417 20.1624 20.3225 21.683C21.7859 22.4295 22.5696 23.6694 22.8299 25.2854C23.0247 26.4945 22.877 27.6359 22.2667 28.7057C21.2521 30.4844 18.8157 31.0587 17.1341 29.9127C16.6475 29.5811 16.3059 29.1287 16.2933 28.5324C16.2775 27.7841 16.6843 27.2592 17.6432 27.3037C18.0099 27.3207 18.3763 27.3404 18.743 27.3383C19.3699 27.3348 19.618 27.1028 19.6889 26.4731C19.7995 25.4899 19.3144 24.7436 18.3766 24.4543C16.4549 23.8615 14.3184 24.8443 13.5384 26.702C13.0194 27.9381 13.2001 29.1787 13.6941 30.3586C14.5245 32.3423 16.0628 33.4541 18.1583 33.7277C20.451 34.0271 22.4365 33.3421 24.0529 31.6502C25.1298 30.523 25.7757 29.1773 25.9461 27.6154C26.3093 24.2843 25.2977 21.4075 23.1249 18.9103C22.2585 17.9144 21.3566 16.9447 20.6644 15.8068C20.3851 15.3476 20.1518 14.8657 19.9732 14.327Z" fill="#838383"/>
<path d="M42.1096 44.7149C42.7937 44.9789 43.4637 45.198 44.1381 45.4121C43.275 45.4974 42.4214 45.4062 41.574 45.2916C39.8452 45.0579 38.1624 44.6403 36.5844 43.8644C34.2698 42.7265 32.553 41.0425 31.8317 38.4716C31.6093 37.6789 31.5626 36.8531 31.4372 36.0421C31.1724 34.3293 31.0807 32.603 31.0883 30.8523C31.2486 31.323 31.4107 31.7932 31.5689 32.2646C32.0156 33.5958 32.3831 34.9607 32.9224 36.2524C34.1337 39.1537 36.1916 41.3432 38.7928 43.0332C39.831 43.7077 40.9329 44.2559 42.1096 44.7149Z" fill="#838383"/>
<path d="M31.7426 42.2506C33.2965 44.2862 35.2722 45.7253 37.5564 46.8005C37.4507 46.8005 37.3443 46.8086 37.2397 46.7983C37.1346 46.7879 37.0315 46.7573 36.927 46.7388C34.7437 46.3517 32.6921 45.6394 30.9657 44.1784C29.274 42.7468 28.3452 40.921 28.297 38.6691C28.261 36.982 28.3118 35.2962 28.385 33.611C28.3985 33.3013 28.4346 32.9925 28.4615 32.6685C28.571 32.7369 28.5594 32.8506 28.5785 32.9558C28.8368 34.3826 29.0691 35.815 29.3657 37.2337C29.753 39.0856 30.6018 40.7279 31.7426 42.2506Z" fill="#838383"/>
<path d="M24.2072 39.801C25.0254 38.2255 25.5149 36.5662 25.8288 34.8469C26.0568 36.8782 25.9687 38.8835 25.3617 40.8312C24.5281 43.5057 22.8875 45.3465 20.0682 45.9601C18.5219 46.2967 16.9736 46.6166 15.4146 46.885C15.393 46.8887 15.3688 46.877 15.2764 46.8588C16.0613 46.4891 16.7935 46.1411 17.5284 45.799C18.7196 45.2445 19.9298 44.7347 20.9525 43.8646C22.2922 42.7249 23.3803 41.3897 24.2072 39.801Z" fill="#838383"/>
</g>
<defs>
<clipPath id="clip0_6652_10240">
<rect width="58" height="56" fill="white"/>
</clipPath>
</defs>
</svg>
