<svg width="63" height="56" viewBox="0 0 63 56" fill="none" xmlns="http://www.w3.org/2000/svg">
<g clip-path="url(#clip0_300_2287)">
<path fill-rule="evenodd" clip-rule="evenodd" d="M10.7388 13.6164C12.0437 13.4297 13.3925 13.3318 14.7727 13.3318C14.8703 13.3318 14.9678 13.3323 15.0651 13.3333C19.5426 7.32846 26.7006 3.4399 34.7669 3.4399C48.3311 3.4399 59.327 14.4358 59.327 28C59.327 41.5642 48.3311 52.5601 34.7669 52.5601C27.0884 52.5601 20.2328 49.0363 15.7292 43.5177C15.4121 43.5282 15.0933 43.5334 14.7727 43.5334C13.6001 43.5334 12.4502 43.4628 11.3306 43.3271C16.3319 50.959 24.9607 56 34.7669 56C50.2307 56 62.7669 43.464 62.7669 28C62.7669 12.536 50.2307 0 34.7669 0C24.562 0 15.6323 5.45914 10.7388 13.6164ZM20.539 42.9441C24.2409 46.4697 29.2513 48.634 34.7671 48.634C46.1629 48.634 55.401 39.3958 55.401 28C55.401 16.6042 46.1629 7.36616 34.7671 7.36616C28.8831 7.36616 23.5744 9.82891 19.8155 13.7798C28.8514 15.4178 35.5458 21.3569 35.5458 28.4326C35.5458 35.3182 29.2064 41.1273 20.539 42.9441Z" fill="#0B1F8F"/>
<path d="M13.2939 22.6942C14.32 21.1584 15.6141 20.3903 17.1751 20.3903V20.3469H26.3087V37.2583H23.0856V23.7376H17.5658V23.7813C16.8298 23.7813 16.2108 24.1072 15.709 24.759C15.2069 25.4117 14.9702 26.2048 14.9702 27.1612L14.9727 27.1721V37.2583H11.7151V27.1721H11.7486C11.7486 26.2158 11.4978 25.4117 10.996 24.759C10.4939 24.1072 9.87511 23.7813 9.13911 23.7813V23.7376H3.51917V37.2583H0.296143V20.3469H9.42973V20.3903C10.9907 20.3903 12.2845 21.1584 13.3107 22.6942H13.2939Z" fill="#A8A8AA"/>
</g>
<defs>
<clipPath id="clip0_300_2287">
<rect width="63" height="56" fill="white"/>
</clipPath>
</defs>
</svg>
